<?xml version="1.0" standalone="no"?>
<!DOCTYPE svg PUBLIC "-//W3C//DTD SVG 20010904//EN"
 "http://www.w3.org/TR/2001/REC-SVG-20010904/DTD/svg10.dtd">
<svg version="1.0" xmlns="http://www.w3.org/2000/svg"
 width="1132.000000pt" height="1132.000000pt" viewBox="0 0 1132.000000 1132.000000"
 preserveAspectRatio="xMidYMid meet">
<metadata>
Created by potrace 1.11, written by Peter Selinger 2001-2013
</metadata>
<g transform="translate(0.000000,1132.000000) scale(0.100000,-0.100000)"
fill="#000000" stroke="none">
<path d="M5288 10155 c-2 -1 -64 -6 -138 -9 -169 -9 -260 -15 -330 -22 -30 -3
-75 -7 -100 -9 -63 -4 -175 -15 -197 -19 -10 -2 -45 -7 -78 -10 -33 -4 -72 -9
-86 -11 -25 -5 -45 -7 -144 -20 -27 -4 -59 -8 -70 -10 -57 -11 -73 -14 -110
-19 -22 -3 -62 -10 -90 -15 -27 -6 -63 -12 -80 -15 -16 -3 -41 -7 -55 -11 -14
-3 -36 -7 -50 -10 -33 -6 -44 -9 -185 -40 -156 -35 -150 -33 -150 -35 0 -1 -9
-3 -20 -5 -21 -3 -144 -36 -300 -80 -112 -32 -107 -31 -125 -38 -20 -7 -83
-27 -106 -32 -10 -3 -75 -24 -144 -48 -425 -149 -817 -333 -1140 -535 -58 -36
-107 -68 -110 -71 -3 -4 -25 -19 -50 -35 -61 -39 -204 -148 -208 -158 -2 -4
-8 -8 -14 -8 -5 0 -22 -12 -37 -27 -16 -16 -53 -48 -82 -73 -97 -82 -289 -281
-289 -301 0 -5 -4 -9 -9 -9 -5 0 -36 -37 -70 -82 -33 -46 -65 -88 -71 -95 -5
-6 -19 -29 -30 -50 -27 -49 -44 -77 -50 -83 -7 -6 -85 -161 -86 -169 0 -3 -6
-19 -13 -36 -8 -16 -17 -39 -22 -50 -11 -27 -40 -116 -44 -135 -2 -8 -8 -33
-14 -55 -6 -22 -13 -58 -16 -80 -3 -22 -8 -47 -11 -55 -3 -8 -8 -59 -11 -115
-3 -55 -6 -101 -7 -102 -1 -1 -28 -4 -61 -6 -130 -8 -221 -74 -267 -191 -15
-39 -17 -72 -15 -209 2 -155 3 -164 30 -216 32 -62 74 -103 135 -132 61 -28
78 -30 339 -30 128 0 233 -3 234 -7 1 -17 0 -2378 -1 -2387 -2 -5 -1 -14 0
-20 2 -9 3 -1342 1 -1451 l-1 -40 -243 -1 c-260 0 -272 -1 -331 -29 -52 -25
-135 -105 -140 -135 -1 -8 -6 -21 -11 -29 -5 -8 -11 -80 -13 -159 -4 -143 6
-229 32 -275 23 -42 94 -106 142 -127 49 -22 51 -22 691 -24 353 0 645 -4 649
-7 4 -4 7 -108 7 -230 0 -219 11 -318 37 -326 5 -2 10 -8 10 -13 0 -22 94
-108 123 -113 7 -1 18 -5 25 -9 6 -5 12 -5 12 -1 0 3 6 2 12 -4 8 -6 60 -10
126 -9 61 1 112 -2 112 -6 0 -5 3 -6 8 -4 4 3 29 8 57 12 49 6 135 43 158 67
36 38 77 99 81 119 3 13 5 24 7 24 6 0 9 74 10 272 1 197 3 222 18 225 26 6
6509 3 6515 -3 7 -6 7 -20 6 -144 -1 -233 2 -271 27 -323 41 -86 130 -157 211
-167 18 -2 37 -7 42 -10 5 -3 11 -1 14 4 4 6 18 6 36 1 17 -5 30 -5 30 0 0 5
7 7 17 3 13 -5 77 -8 86 -3 1 0 25 2 52 4 49 3 112 24 137 46 51 42 68 62 92
103 16 26 25 47 21 47 -4 0 -3 6 2 13 6 6 10 42 9 79 0 38 3 68 7 68 4 0 3 9
-3 20 -6 11 -7 20 -2 20 4 0 5 27 2 60 -3 33 -2 60 2 60 5 0 4 9 -2 20 -6 11
-7 20 -3 20 4 0 7 19 7 42 l-2 43 717 -1 c394 0 730 3 746 7 17 3 37 8 45 10
48 12 150 105 150 137 0 7 4 12 9 12 21 0 33 110 29 256 -5 171 -17 207 -95
280 -77 73 -107 78 -489 78 l-331 1 2 90 c1 49 -3 96 -8 103 -5 6 -6 12 -1 12
11 0 11 290 1 308 -5 6 -5 12 0 12 10 0 10 291 0 308 -5 6 -5 12 0 12 10 0 10
291 0 307 -5 7 -5 13 0 13 10 0 10 291 0 308 -5 6 -4 12 1 12 5 0 7 29 6 64
-4 72 -7 68 105 128 84 46 116 73 136 114 26 55 21 106 -18 182 -38 76 -96
182 -107 197 -4 6 -32 57 -62 115 l-55 105 1 175 c1 96 -2 181 -7 188 -5 6 -6
12 -1 12 11 0 11 290 1 308 -5 6 -5 12 0 12 10 0 10 291 0 308 -5 6 -5 12 0
12 10 0 10 291 0 308 -5 6 -4 12 0 12 5 0 8 39 8 88 l0 87 313 1 c172 1 332 5
357 8 91 14 174 77 218 166 20 41 22 59 22 221 0 165 -1 178 -24 222 -52 102
-131 154 -245 163 -27 2 -50 5 -52 7 -2 1 -6 37 -8 78 -7 104 -19 180 -42 279
-22 93 -19 81 -55 174 -10 27 -19 55 -19 62 0 8 -5 14 -12 14 -6 0 -9 3 -5 6
13 13 -148 299 -225 399 -153 198 -337 383 -528 530 -36 27 -67 52 -70 55 -18
19 -259 180 -270 180 -5 0 -10 4 -10 8 0 5 -15 16 -32 25 -18 10 -49 27 -68
38 -232 141 -646 335 -903 425 -40 14 -84 32 -99 40 -16 8 -28 13 -28 10 0 -3
-37 8 -82 25 -46 17 -94 32 -108 35 -14 3 -49 14 -78 24 -28 11 -55 20 -60 20
-4 0 -25 6 -47 12 -22 6 -43 11 -47 10 -5 -1 -8 2 -8 8 0 5 -7 7 -15 4 -8 -3
-20 -2 -27 2 -11 7 -188 55 -256 70 -12 2 -61 14 -108 25 -47 11 -98 22 -112
24 -15 3 -58 11 -95 20 -37 8 -82 17 -100 21 -18 3 -68 12 -112 20 -80 15
-119 21 -185 29 -19 2 -36 4 -37 5 -5 4 -60 13 -163 25 -67 8 -135 17 -160 20
-92 13 -255 27 -317 29 -24 1 -43 3 -43 6 0 3 -26 6 -58 6 -31 1 -100 4 -152
8 -93 7 -955 17 -962 11z m-2088 -3570 c0 -2 -323 -327 -718 -722 -643 -643
-802 -810 -802 -842 0 -5 -4 -11 -8 -13 -5 -1 -25 -38 -46 -81 -54 -114 -79
-201 -93 -332 -3 -27 -6 -51 -8 -53 -1 -2 -2 459 -2 1023 l0 1025 839 0 c461
-1 838 -3 838 -5z m6421 -2 c0 -5 2 -43 2 -85 2 -70 0 -77 -15 -72 -10 3 -30
8 -45 10 -15 3 -29 7 -31 8 -10 11 -98 -22 -172 -63 -47 -27 -107 -61 -135
-76 -27 -15 -68 -38 -90 -50 -22 -12 -67 -37 -100 -55 -33 -18 -61 -36 -63
-41 -2 -5 -10 -9 -18 -9 -13 0 -36 -12 -109 -57 -11 -7 -47 -26 -80 -44 -33
-17 -85 -46 -115 -64 -52 -31 -153 -86 -250 -137 -24 -12 -50 -29 -58 -35 -7
-7 -17 -13 -21 -13 -12 0 -31 23 -31 37 0 28 -135 301 -172 348 -4 6 -36 48
-70 95 -34 47 -113 136 -175 198 l-114 112 931 0 c511 0 930 -3 931 -7z
m-7008 -1165 c-8 -34 -9 -1431 -1 -1523 4 -44 9 -93 12 -110 3 -16 8 -48 12
-70 3 -22 8 -43 10 -46 2 -3 6 -20 9 -38 3 -18 7 -38 8 -44 1 -7 -7 -11 -18
-10 -63 7 -96 13 -105 18 -6 4 -20 8 -33 10 -30 6 -137 50 -184 76 -127 71
-253 186 -331 303 -26 39 -47 73 -48 76 0 3 -12 30 -26 60 -27 56 -39 85 -44
107 -1 6 -7 27 -12 45 -6 18 -14 51 -18 73 -9 50 -13 296 -5 310 3 6 7 21 9
35 11 93 82 262 153 366 39 57 154 173 221 222 50 36 238 137 238 127 0 -2 24
5 53 15 28 10 64 19 79 19 23 1 26 -2 21 -21z m5837 -78 c0 -4 6 -7 13 -7 44
-3 77 -8 77 -13 0 -3 8 -6 19 -7 18 -2 92 -31 144 -59 61 -32 92 -49 97 -54 3
-3 23 -18 45 -35 65 -48 159 -148 212 -225 148 -218 194 -487 129 -771 -15
-65 -72 -198 -90 -211 -6 -4 -7 -8 -3 -8 18 0 -82 -130 -157 -205 -120 -119
-271 -210 -397 -240 -9 -2 -34 -8 -55 -15 -22 -6 -69 -13 -106 -16 -64 -6 -68
-5 -68 15 0 12 5 21 12 21 6 0 9 3 6 6 -4 3 2 37 13 75 11 39 17 74 14 80 -4
5 -2 9 2 9 8 0 14 30 16 83 1 9 5 17 10 17 4 0 6 4 2 9 -11 19 15 22 34 4 42
-39 161 -65 228 -49 121 28 244 223 260 412 9 109 -17 168 -87 202 -28 13 -62
17 -160 16 -141 -1 -154 -3 -217 -39 -55 -30 -54 -30 -45 -2 4 12 6 36 5 52
-2 17 -3 37 -3 45 0 8 0 33 0 54 0 22 -2 41 -4 44 -3 2 -1 15 4 28 5 13 6 24
2 24 -4 0 -6 17 -4 38 l4 37 76 0 c60 0 88 6 124 23 148 73 218 221 179 380
-28 112 -148 184 -317 191 -32 1 -60 4 -63 6 -2 3 -4 25 -5 50 -1 43 0 45 26
43 16 -1 28 -5 28 -8z m-6923 -842 c-3 -7 -5 -2 -5 12 0 14 2 19 5 13 2 -7 2
-19 0 -25z m27 -218 c2 -14 9 -38 16 -55 6 -16 11 -30 10 -30 -3 0 13 -42 32
-85 11 -24 24 -54 29 -65 10 -21 31 -57 39 -65 3 -3 18 -25 34 -50 26 -40 359
-380 411 -420 76 -58 275 -170 275 -155 0 3 13 -1 29 -9 15 -8 40 -17 54 -20
15 -2 30 -7 35 -10 11 -7 85 -17 172 -23 80 -5 95 -12 106 -46 4 -12 22 -46
40 -75 19 -29 34 -55 34 -58 0 -3 14 -23 30 -44 17 -21 30 -43 30 -49 0 -6 4
-11 8 -11 4 0 15 -12 24 -27 9 -16 33 -45 52 -65 20 -21 34 -38 32 -38 -6 0
96 -101 145 -144 22 -19 41 -38 42 -43 2 -8 -1676 -13 -1699 -6 -8 3 -11 248
-11 886 0 758 2 871 13 807 7 -41 15 -86 18 -100z m8070 -1004 c1 -375 -3
-580 -9 -584 -5 -4 -425 -7 -932 -7 l-921 -1 109 107 c60 58 109 111 109 118
0 6 4 11 8 11 10 0 104 125 114 152 4 10 12 18 18 18 5 0 10 4 10 9 0 5 18 39
40 77 l40 68 57 2 c118 5 185 18 295 55 80 26 128 49 258 121 25 14 81 44 125
68 44 24 82 46 85 49 3 3 23 15 45 26 22 11 43 24 47 30 4 5 8 6 8 2 0 -4 17
4 37 18 21 14 43 25 50 25 7 0 13 4 13 8 0 5 17 16 38 25 20 9 60 29 87 46 28
16 70 41 95 54 25 14 70 39 100 56 30 16 59 29 64 28 6 -2 10 -238 10 -581z"/>
<path d="M2108 4741 c-29 -14 -70 -41 -91 -60 -36 -34 -105 -157 -93 -168 3
-3 1 -14 -4 -24 -7 -12 -7 -20 0 -24 6 -4 8 -11 4 -16 -3 -5 6 -33 19 -62 66
-143 283 -279 433 -273 69 3 112 37 135 106 6 19 14 40 18 45 12 22 26 128 25
201 -2 168 -147 303 -321 301 -55 0 -84 -6 -125 -26z"/>
</g>
</svg>
