<svg width="1278" height="304" viewBox="0 0 1278 304" fill="none" xmlns="http://www.w3.org/2000/svg">
<g clip-path="url(#clip0)">
<path d="M11.7996 17.5996C23.9996 37.4996 31.5996 59.9996 35.9996 83.0996C40.2996 106.2 41.4996 129.8 40.0996 153.1C38.7996 176.4 34.9996 199.4 29.6996 221.8C24.3996 244.3 17.4996 266.2 8.29961 287.5L7.09961 287.2L10.5996 270.5L13.9996 253.7L17.1996 236.9L20.1996 220.1C23.8996 197.6 26.7996 175 27.9996 152.3C29.2996 129.6 29.0996 106.8 26.3996 84.1996C25.6996 78.5996 24.6996 72.9996 23.8996 67.2996C22.8996 61.6996 21.5996 56.1996 20.4996 50.5996L16.0996 34.0996L10.6996 17.8996L11.7996 17.5996Z" fill="white"/>
<path d="M70.7003 134.6C71.1003 126.4 70.2003 118.2 68.0003 110.4C65.8003 102.6 62.0003 95.3999 57.1003 88.9999L60.9003 89.2999C49.3003 102.5 39.2003 116.9 31.7003 132.6C24.2003 148.3 19.1003 165 16.5003 182.1C14.0003 199.3 12.6003 216.6 11.3003 234.1C10.1003 251.6 9.60034 269.4 7.80034 287.3L6.60034 287.4C2.90034 269.8 0.800339 252 0.200339 234C-0.499661 216 0.900339 197.7 5.30034 180C9.50034 162.3 15.7003 144.9 24.5003 129C33.3003 113.1 44.4003 98.4999 57.4003 85.9999L59.6003 83.8999L61.2003 86.2999C65.9003 93.4999 69.3003 101.4 71.1003 109.7C72.9003 118 73.0003 126.5 72.0003 134.8L70.7003 134.6Z" fill="white"/>
<path d="M113.601 220.4C106.301 222.6 98.9008 224.4 91.3008 225.6C83.7008 226.8 76.0008 227.4 68.3008 227.2C60.6008 226.9 52.8008 225.9 45.2008 223.8C37.6008 221.7 30.3008 218.6 23.4008 214.6L19.8008 212.5L22.3008 208.8C26.2008 203.1 29.9008 197.2 33.6008 191.4C37.3008 185.6 41.3008 179.9 45.3008 174.4C53.3008 163.2 61.2008 152.1 68.8008 140.3L69.7008 140.7C68.3008 147.7 65.8008 154.4 63.0008 160.8C60.2008 167.3 56.8008 173.5 53.3008 179.5C49.8008 185.6 45.9008 191.4 41.7008 197C37.5008 202.6 33.1008 208 28.9008 213.5L27.8008 207.7C39.6008 216 53.9008 220.7 68.6008 222.2C76.0008 223 83.5008 223.1 90.9008 222.5C98.4008 222 105.901 220.9 113.301 219.5L113.601 220.4Z" fill="white"/>
<path d="M84.8006 82.7998C85.8006 88.3998 88.2006 93.4998 90.4006 98.6998L94.0006 106.4L97.8006 114.1L105.401 129.5C107.901 134.6 106.301 142.4 108.501 147.7C112.901 158.3 120.601 166.8 125.301 177.3C129.901 187.8 135.201 198.1 140.401 208.4C145.501 218.9 150.601 229.3 152.301 241.9C152.601 245.1 152.901 248.5 151.601 252.5C150.901 254.4 149.801 256.6 147.801 258.2C145.901 259.8 143.601 260.7 141.501 261C140.501 261.2 139.501 261.2 138.501 261.3C137.601 261.3 136.701 261.3 135.801 261.2C134.001 261 132.201 260.6 130.401 260C126.801 258.7 123.501 256.3 121.301 253.3C119.101 250.4 117.601 247.2 116.601 244.1C115.601 241 115.101 237.8 114.801 234.8C114.201 228.6 114.401 222.6 115.101 216.8C116.501 205.1 119.301 193.7 123.201 182.8L124.201 183C123.501 194.6 122.601 206 122.801 217.2C122.901 222.8 123.301 228.3 124.201 233.5C125.201 238.7 126.801 243.7 129.501 246.9C130.801 248.5 132.301 249.6 134.101 250.3C135.001 250.7 136.001 250.9 137.001 251L138.601 251.1C139.101 251.1 139.501 251.1 139.901 251.1C140.701 251 141.101 250.8 141.501 250.6C141.801 250.4 142.101 250 142.501 249.3C143.201 247.9 143.401 245.4 143.201 242.9C142.901 237.8 141.601 232.3 140.201 226.9C138.801 221.5 137.201 216 135.501 210.6C132.001 199.7 127.701 189 122.501 178.8C117.301 168.6 114.101 158 108.501 147.9C105.701 142.9 99.9006 138.7 97.6006 133.4C95.2006 128.2 93.0006 122.8 91.0006 117.4C89.0006 112 87.1006 106.4 85.7006 100.7C85.0006 97.8998 84.4006 94.9998 84.0006 91.9998C83.6006 89.0998 83.5006 85.9998 84.0006 83.0998L84.8006 82.7998Z" fill="white"/>
<path d="M174.301 303.9C176.701 278.2 174.901 252.3 170.401 227.1C165.901 201.9 158.501 177.3 149.501 153.5C148.301 150.4 149.901 146.8 153.001 145.6C156.101 144.4 159.701 146 160.901 149.1C161.001 149.2 161.001 149.4 161.101 149.6C168.401 174.7 173.901 200.4 176.501 226.3C179.101 252.2 178.701 278.4 174.301 303.9Z" fill="white"/>
<path d="M147.5 156.1C150.1 148.6 155.3 142.5 161 137.5C166.8 132.5 173.4 128.6 180.3 125.8C187.2 123 194.6 121.1 202 120.4C209.5 119.8 217.1 120 224.6 122.5L224.7 123.5C217.7 124.6 210.8 126.1 204 128C197.2 129.9 190.5 132.2 184 134.9C177.5 137.5 171.1 140.6 165 144.3C162 146.1 159.1 148.1 156.2 150.2C154.8 151.2 153.4 152.4 152 153.5C150.7 154.6 149.4 155.8 148.1 157L147.5 156.1Z" fill="white"/>
<path d="M234.7 227.3C238.8 219.6 243.1 212.2 247.2 204.7C249.3 201 251.3 197.2 253.3 193.5C255.3 189.8 257.3 186.1 259.2 182.3C262.8 174.8 266.3 167.3 268.2 160.2C269.1 156.7 269.4 153.2 269 151.4C268.8 150.5 268.5 150.1 268.3 150C268.1 149.9 267.8 149.7 267.1 149.4L272 150.3C265.8 151.2 260.3 153.8 255.4 158.3C252.9 160.4 250.7 163.2 248.6 166C247.6 167.5 246.6 169 245.6 170.5C244.7 172.1 243.7 173.6 243 175.4C239.6 182 237 189.4 235 196.9C234.5 198.8 234 200.7 233.6 202.6L233 205.5L232.7 206.9L232.5 208.1C231.9 211.4 231.8 214.5 232.2 216.8C232.5 217.9 232.7 218.9 233.2 219.6C233.4 220 233.7 220.3 233.9 220.7C234.2 220.9 234.4 221.3 234.9 221.6C236.2 222.8 238.9 223.7 242 223.9C245.2 224.2 248.8 223.8 252.5 223C256.2 222.2 260 221.3 263.7 219.9C278.8 214.4 293.5 206 308.1 197L308.2 196.9C308.5 196.7 308.9 196.8 309 197.1C309.2 197.4 309.1 197.7 308.9 197.9C302.6 203.6 295.9 209 289 213.9C282 218.8 274.8 223.4 267 226.9C259.2 230.4 250.9 233.3 242.2 233.5C237.9 233.5 233.3 232.8 229.5 230.4C225.6 228.1 223 223.9 221.8 219.7C220.7 215.4 220.7 210.9 221.3 206.6C221.9 202.3 222.7 198.2 223.8 194C225.8 185.7 228.6 177.5 232.5 169.8C236.4 162.1 241.4 154.9 248 149.2C254.5 143.4 262.9 139.8 271.7 139.1H272L272.3 139.2C274.4 140.2 276.3 141.6 277.6 143.6C279 145.5 279.7 147.8 279.9 150.1C280.4 154.7 279.2 159 277.9 163.1C275 171.3 270.8 178.9 266.3 186.2C261.8 193.5 256.9 200.6 251.8 207.5C246.7 214.4 241.4 221.2 236.1 227.9C235.9 228.2 235.5 228.2 235.3 228C234.6 228 234.5 227.7 234.7 227.3Z" fill="white"/>
<path d="M318.101 186.2C325.501 176.2 332.901 166.3 338.801 155.9C340.301 153.3 341.701 150.7 342.901 148C344.101 145.4 345.201 142.7 346.001 140C347.601 134.7 348.101 129.2 346.301 125.7C345.801 124.8 345.301 124.1 344.601 123.3C343.901 122.6 343.001 122 342.101 121.4C341.801 121.2 341.801 121.3 341.601 121.2C341.501 121.2 341.401 121 341.301 121.1C341.001 121.1 340.801 121 340.401 121C339.701 121 338.801 121.2 337.701 121.6C335.601 122.4 333.401 124 331.301 125.8C329.201 127.6 327.101 129.6 325.201 131.8C321.301 136.2 318.001 141.1 314.801 146.2C311.701 151.3 308.801 156.6 306.401 162.1C304.001 167.6 302.201 173.5 301.501 179.4C300.801 185.4 301.201 191.5 303.801 196.8C305.101 199.5 306.801 201.9 308.801 203.9C310.901 205.9 313.301 207.4 315.901 208.2C321.101 210 326.701 209.5 332.001 207.8C337.301 206.2 342.501 203.6 347.501 200.6C352.401 197.5 357.201 193.9 361.801 190C366.401 186.1 370.701 181.9 375.001 177.5C380.201 172.1 384.301 167.7 387.701 164C387.901 163.8 388.201 163.8 388.401 164C388.601 164.1 388.601 164.4 388.501 164.6C383.001 175.8 375.801 186.3 366.901 195.5C362.501 200.1 357.601 204.3 352.101 207.9C346.701 211.5 340.601 214.4 333.801 215.7C327.201 217 319.701 216.4 313.601 213.1C307.401 209.8 303.301 204 300.901 198C299.701 195 298.901 191.8 298.501 188.6C298.001 185.4 298.101 182.2 298.201 179C298.701 172.7 299.701 166.4 301.401 160.2C304.701 147.9 310.101 136.1 318.101 125.8C320.101 123.2 322.301 120.7 324.801 118.4C327.301 116.1 330.001 113.8 333.601 112.2C335.401 111.4 337.401 110.6 339.901 110.6C341.101 110.5 342.401 110.7 343.601 110.9C344.201 111 344.801 111.3 345.501 111.5C346.101 111.7 346.801 112 347.201 112.3C348.901 113.2 350.601 114.5 352.101 116C353.601 117.5 354.801 119.3 355.701 121.2C357.501 125.1 357.901 129.2 357.501 132.8C357.201 136.5 356.201 139.9 355.001 143C352.501 149.3 349.101 154.9 345.301 160C337.701 170.2 328.701 179.1 318.901 186.8C318.701 187 318.401 186.9 318.201 186.7C317.901 186.6 317.901 186.3 318.101 186.2Z" fill="white"/>
<path d="M385.601 164.6C384.101 161.7 382.401 158.7 380.401 156.3C379.501 155.1 378.001 154 377.301 154C376.901 153.9 376.001 154.9 375.301 156.2L375.501 155.9C373.301 163.4 371.801 171.1 371.901 178.6C371.901 186.1 373.801 193.4 377.601 199.6C379.501 202.7 381.801 205.5 384.101 208.2C386.501 210.9 389.001 213.6 391.701 216.2C397.101 221.4 403.301 226.2 409.601 231.6C409.801 231.8 409.801 232.1 409.701 232.3C409.601 232.4 409.401 232.5 409.201 232.5C401.001 231.1 393.301 227.9 386.201 223.3C382.701 220.9 379.301 218.2 376.501 214.9C373.601 211.6 371.301 207.8 369.601 203.8C366.001 195.8 364.701 186.9 365.401 178.5C366.101 170.1 368.701 162.1 372.001 154.7L372.101 154.4V154.3C372.601 153.5 373.201 152.8 374.101 152C374.901 151.3 376.301 150.6 377.801 151C379.201 151.3 380.101 152 380.701 152.7C381.301 153.5 381.901 154.1 382.301 154.8C384.201 157.8 385.301 161 386.401 164.1C386.501 164.4 386.401 164.6 386.101 164.7C386.001 164.9 385.701 164.8 385.601 164.6Z" fill="white"/>
<path d="M423.2 134.5C422.2 143.3 421.4 151.2 420.8 159.2C420.1 167.2 419.5 175.2 418.8 183.2C418 191.2 417.1 199.3 415.7 207.5C414.3 215.7 412.6 223.9 409.5 232.1C406.5 223.8 405.1 215.5 404.2 207.1C403.4 198.7 403.4 190.3 404.2 181.8C405 173.4 406.7 164.9 409.6 156.7C412.6 148.6 416.8 140.6 423.2 134.5Z" fill="white"/>
<path d="M527.601 113.9C521.101 121.8 513.901 129.1 505.801 135.5C497.701 141.9 488.801 147.5 478.801 151.1C473.801 152.9 468.401 154 462.901 154.1C457.401 154.2 451.801 153.1 446.901 150.7C441.901 148.5 437.701 145 434.001 141.6C432.101 139.9 430.301 138.1 428.401 136.7C427.401 136 426.401 135.5 425.301 135.3C424.101 135 423.001 135.5 421.801 136.1C422.701 135.2 423.801 134.3 425.301 134.2C426.701 134 428.101 134.4 429.401 134.9C431.901 135.9 434.101 137.4 436.201 138.7C438.301 140.1 440.401 141.4 442.601 142.5C444.701 143.6 446.901 144.7 449.101 145.4C458.001 148.5 467.501 147.4 476.501 144.2C481.001 142.7 485.501 140.7 489.801 138.3L493.101 136.6L496.301 134.7C498.401 133.5 500.501 132.1 502.701 130.8C511.001 125.5 519.101 119.6 527.601 113.9Z" fill="white"/>
<path d="M536.1 23.0998C538.2 17.9998 541.4 13.0998 545.8 9.49977C550.2 5.79977 555.6 3.49977 561.1 2.09977C572.2 -0.600226 583.6 -0.200226 594.6 0.599774C616.4 1.99977 638.5 2.09977 660.5 2.29977L726.6 2.49977C748.6 2.49977 770.7 2.39977 792.7 1.59977L796.3 1.49977L793.8 3.89977C775.1 21.8998 757.5 40.9998 741.2 61.1998C724.9 81.3998 710 102.6 696.3 124.5C682.7 146.5 670.5 169.3 660.6 193.1L656.9 202L653.6 211.1C651.2 217.1 649.3 223.2 647.4 229.3L645.9 233.9L644.6 238.5L642 247.8C640.3 254 639.1 260.3 637.6 266.6L631.5 263C642.6 253.9 655.5 247.3 668.9 242.9C682.4 238.5 696.3 236.2 710.2 235.3C724.1 234.5 738.1 235 751.9 236.2C765.7 237.5 779.4 239.5 793 242L792.9 242.7C779.2 241.3 765.4 240.1 751.7 239.6C738 239.1 724.2 239.2 710.7 240.7C697.2 242 683.7 244.6 671.1 249.2C658.4 253.7 646.6 260.3 636.4 268.8L627.9 275.9L630.3 265.2C631.7 258.8 633 252.3 634.6 246L637.2 236.5L638.5 231.8L640 227.1C642 220.9 644 214.6 646.4 208.5L649.9 199.3L653.8 190.3C664.3 166.3 676.9 143.2 691.4 121.5C705.8 99.6998 722 79.1998 739 59.4998C756 39.7998 773.8 20.7998 792 2.19977L793 4.49977C771 6.09977 748.9 7.39977 726.8 8.29977C704.7 9.19977 682.6 9.39977 660.5 8.99977C649.5 8.79977 638.4 8.49977 627.4 7.99977C616.3 7.49977 605.3 6.79977 594.2 5.59977C583.4 4.39977 572.4 3.49977 561.8 5.39977C556.5 6.29977 551.4 8.09977 547.1 11.2998C542.8 14.3998 539.3 18.7998 536.8 23.5998L536.1 23.0998Z" fill="white"/>
<path d="M632.9 137.3C644.6 132.9 657.1 130.5 669.5 129.2C682 128 694.5 127.7 707 127.4C719.5 127.2 731.8 126.2 744.2 126.2C756.6 126.2 768.9 125.9 781.5 126.2L781.6 126.9C769.5 130.5 757 132.4 744.5 133.4C732 134.5 719.4 133.6 707 133.2C694.6 132.8 682.2 132.3 669.8 132.8C657.5 133.2 645.1 134.7 633.1 138L632.9 137.3Z" fill="white"/>
<path d="M828.8 31.3999C830.2 49.3999 830.3 67.2999 830 85.0999C830 93.9999 829.5 102.9 829.2 111.9L827.7 138.6C827 147.5 826.3 156.4 825.5 165.3C824.6 174.2 823.8 183.1 822.6 191.9C820.5 209.6 817.9 227.4 814.1 245H813.4L820.3 138.2L828 31.3999H828.8Z" fill="white"/>
<path d="M897.099 223.3C895.299 226.3 893.2 228.9 890.9 231.4C888.6 233.9 885.9 236.2 882.8 238.1C881.2 239 879.499 239.9 877.599 240.5C877.099 240.7 876.599 240.7 876.099 240.8L875.3 240.9C875.2 240.9 875.1 240.9 874.9 240.9H874.2C873.4 240.9 872.4 240.6 871.5 240.1C871.1 239.8 870.8 239.5 870.4 239.2C870.1 238.9 869.9 238.6 869.7 238.3C868.9 237 868.5 235.9 868.3 234.9C868.1 233.9 868 232.9 867.9 232C867.8 230.2 867.9 228.4 868 226.7C868.6 219.9 870.3 213.5 869.9 206.9C869.7 203.7 869 200.4 867.5 197.8C866 195.1 863.3 193.7 860.4 193.3C857.5 192.9 854.5 193.3 851.7 194.2C848.9 195.1 846.1 196.4 843.5 198C838.3 201.3 833.699 205.6 829.599 210.3C821.299 219.7 815.1 231 812.3 244.1H811.599C810.599 237.3 811.399 230.3 813.599 223.6C815.699 216.9 819.3 210.7 823.7 205.2C828.2 199.8 833.8 195.2 840.2 192C843.4 190.4 846.8 189.1 850.5 188.5C854.1 187.9 857.999 188.1 861.599 189.4C863.399 190.1 865 190.9 866.5 192.2C868 193.5 869.1 195 869.9 196.6C871.4 199.9 872 203.3 872.5 206.7C873.3 213.4 874 220.3 874.3 226.8C874.4 228.4 874.499 230 874.599 231.5C874.699 232.9 875 234.5 875.2 234.8C875.4 235 874.8 234.6 874.8 234.7C874.8 234.7 874.9 234.7 875 234.7H875.4C875.7 234.7 876 234.7 876.3 234.6C877.6 234.4 879 233.9 880.3 233.3C885.9 230.8 891.2 226.7 896.7 222.9L897.099 223.3Z" fill="white"/>
<path d="M901.4 189.5C904.2 197.2 907.1 204.8 911.1 211.7C913.1 215.2 915.3 218.5 917.9 221.3C920.5 224.1 923.5 226.4 926.8 227.5C928.4 228.1 930.1 228.2 931.8 228.2C933.5 228.1 935.1 227.7 936.8 227.2C940 226 943.2 224.2 946.3 222C952.6 217.8 958.4 212.1 964.8 206.7L965.4 207.1C963.8 211 961.8 214.7 959.3 218.2C956.9 221.7 954 224.9 950.7 227.8C947.3 230.6 943.3 233 938.7 234.1C936.4 234.6 934 234.8 931.5 234.6C929.1 234.4 926.7 233.8 924.6 232.8C920.2 230.9 916.9 227.6 914.2 224.2C911.5 220.8 909.5 217 907.8 213.2C906.1 209.4 904.7 205.4 903.6 201.5C902.4 197.6 901.5 193.5 900.6 189.5H901.4Z" fill="white"/>
<path d="M973.6 238.9C971.2 236.4 969.1 233.6 967.1 230.6C965.2 227.6 963.5 224.4 962.2 221.1C960.9 217.8 959.1 214.4 959.1 210.7C959.1 208.9 959.2 207.1 959.6 205.2C960 203.4 960.6 201.6 961.6 199.9H962.3C963.4 201.6 964.1 203.2 964.7 204.8C965.4 206.4 965.9 208 966.3 209.6C967.3 212.7 967.1 216.1 967.7 219.3C968.4 222.5 969.2 225.7 970.3 228.9C971.3 232.1 972.7 235.2 974.1 238.4L973.6 238.9Z" fill="white"/>
<path d="M997.7 242.4C996 237.9 994.4 233.3 992.9 228.7C991.4 224.1 990 219.4 988.8 214.7C986.4 205.2 984.6 195.6 984.1 185.5L984 184.2L984.9 183.3C985.8 182.5 986.5 181.6 987.5 180.9C988.5 180.3 989.5 179.4 990.7 179L992.5 178.3C993.1 178.1 993.7 178 994.4 177.9C995.7 177.6 996.9 177.7 998.1 177.7C1003 178.1 1007 180.2 1010.4 182.5C1013.8 184.8 1016.8 187.5 1019.6 190.4C1022.3 193.3 1024.9 196.3 1027.2 199.6L1026.7 200.1C1023.2 198.2 1019.9 196.1 1016.6 194.1C1013.3 192.1 1010.1 190.1 1006.9 188.4C1003.7 186.8 1000.4 185.4 997.5 185.1C994.7 184.8 992.1 185.4 989.7 187.6L990.6 185.4C990.1 194.7 991.2 204.3 992.7 213.7C993.5 218.4 994.3 223.2 995.3 227.9C996.3 232.6 997.4 237.3 998.5 242.1L997.7 242.4Z" fill="white"/>
<path d="M1029.7 221.8C1037.1 219 1044.7 216.9 1052.1 214.7C1055.8 213.6 1059.5 212.5 1063 211.2C1064.7 210.5 1066.5 209.9 1068 209.1C1069.6 208.3 1071.1 207.5 1072 206.7C1072.5 206.3 1072.8 205.9 1072.9 205.6C1073 205.3 1073.1 204.9 1073 204.3C1072.8 203.1 1071.7 201.6 1070.5 200.3C1069.3 199 1067.9 197.9 1066.3 197.1C1064.7 196.3 1062.9 195.7 1061.1 195.5C1053.7 194.7 1046.1 198.8 1041.9 204.6C1037.6 210.5 1036.3 217.8 1038.6 224C1039.8 227.1 1041.7 230 1044.1 232.5C1045.3 233.8 1046.7 235 1048 236.3C1049.4 237.4 1050.7 238.6 1052.2 239.4C1055 241.3 1058 242.6 1061.1 242.9C1064.2 243.2 1067.4 242.3 1070.5 240.6C1076.7 237.1 1081.9 231.2 1087 225.2L1087.6 225.6C1084.6 232.9 1080.5 240 1073.7 245.4C1070.3 248 1065.8 249.9 1061 250C1056.2 250.1 1051.7 248.3 1048 246C1046.1 244.9 1044.5 243.4 1042.8 242.1C1041.3 240.6 1039.8 239.3 1038.4 237.6C1035.6 234.3 1033.3 230.4 1032.1 226.1C1030.8 221.8 1030.8 217 1032.1 212.8C1033.4 208.5 1035.9 204.9 1039 202C1042 199.1 1045.6 196.9 1049.4 195.3C1053.2 193.8 1057.3 192.9 1061.4 193.2C1065.5 193.3 1069.7 194.8 1073.3 197.3C1075 198.6 1076.8 199.9 1078 202.4C1078.6 203.6 1078.9 205.3 1078.6 206.9C1078.3 208.5 1077.5 209.9 1076.7 210.8C1074.9 212.8 1073 214 1071.1 215C1069.2 216 1067.2 216.7 1065.3 217.3C1061.4 218.6 1057.5 219.5 1053.6 220.2C1045.8 221.6 1038 222.5 1030 222.5L1029.7 221.8Z" fill="white"/>
<path d="M1083.1 192.8C1086.2 195.3 1088.9 198.3 1091.3 201.6C1093.7 204.9 1095.6 208.5 1097.2 212.3C1098.8 216 1100.7 219.8 1100.9 223.9C1101.1 225.9 1101 228 1100.7 230C1100.4 232 1100 234.1 1099.1 236.1L1098.4 236.2C1097.2 234.3 1096.4 232.5 1095.6 230.7C1094.8 228.9 1094.2 227.1 1093.7 225.3C1092.5 221.7 1092.6 217.9 1091.7 214.3C1090.8 210.7 1089.7 207.1 1088.2 203.6C1086.8 200.1 1084.9 196.7 1082.7 193.5L1083.1 192.8Z" fill="white"/>
<path d="M1139.2 240.9C1138 237 1137.5 233.4 1136.7 229.8C1136 226.2 1135.2 222.8 1134.6 219.3C1134 215.9 1133.6 212.1 1131.5 209.1C1129.4 206.2 1125.9 204.3 1122.6 204.6C1121 204.6 1119.4 205.2 1118 205.8C1116.6 206.4 1115.3 207.3 1114 208.2C1111.5 210.2 1109.6 212.9 1107.7 215.7C1105.8 218.5 1104.1 221.6 1102.5 224.8C1100.9 228.1 1099.5 231.5 1097.8 235.1L1097.1 235C1095.8 227.2 1097 218.9 1101.2 211.5C1103.3 207.9 1106.4 204.7 1110.3 202.4C1114.1 200.1 1119.1 199.2 1123.3 200.7C1124.4 201 1125.3 201.5 1126.3 201.9C1127.2 202.5 1128.1 202.9 1128.9 203.6C1130.6 204.8 1132 206.2 1133.4 207.7C1136.1 210.6 1138.9 213.8 1140.5 217.6C1142.2 221.4 1142.5 225.5 1142.4 229.4C1142.3 233.4 1141.6 237.3 1140 241L1139.2 240.9Z" fill="white"/>
<path d="M1170.7 224.1C1170.5 230.2 1170.1 236.2 1168.9 242.3H1168.2C1167.4 239.3 1166.8 236.3 1166.3 233.3C1165.8 230.3 1165.4 227.3 1165 224.3C1164.7 221.3 1164.3 218.3 1164.1 215.3C1163.9 212.3 1163.7 209.3 1163.7 206.3C1163.7 200.3 1164.4 194.2 1163.9 188.2C1163.5 182.2 1162.3 176.3 1160.8 170.5C1160.1 167.6 1159.1 164.7 1158.4 161.8L1156.3 153.1C1154.9 147.3 1153.3 141.6 1151.9 135.8C1150.3 128.8 1148.7 121.8 1147.2 114.7C1146.2 110.1 1145.2 105.4 1144.3 100.6L1145 100.3C1146.1 102 1147.2 103.8 1148.2 105.6C1153.2 114.5 1156.8 124.1 1159.6 133.9C1161.2 139.8 1162.3 145.8 1163.2 151.8C1164.2 157.8 1164.7 163.9 1164.9 170C1165.1 176.1 1165.5 182.1 1166.4 188.1C1167.3 194.1 1169 200 1169.9 206C1170.7 212 1170.8 218.1 1170.7 224.1Z" fill="white"/>
<path d="M1199.9 190.5C1194.9 192.6 1190.4 195.6 1187 199.4C1183.5 203.2 1180.8 207.7 1178.8 212.4C1176.7 217.2 1175.9 222.4 1174 227.3C1172.1 232.2 1170.3 237.3 1167.4 242.3L1166.7 242.2C1165.6 236.5 1166 230.9 1167 225.4C1168 219.8 1170.8 214.7 1173.7 209.8C1176.5 204.9 1180.2 200.3 1184.7 196.7C1189.2 193.2 1194.5 190.7 1199.9 189.7V190.5Z" fill="white"/>
<path d="M1224.3 235.4C1219.7 237.4 1214.8 238.7 1209.7 238.8C1204.6 238.9 1199.4 237.6 1194.9 235.1C1190.4 232.6 1186.4 229.1 1183.1 225.2C1179.8 221.3 1177 217 1174.5 212.5L1178.9 210.3C1180.9 214.7 1183.2 219 1186.1 222.9C1188.9 226.8 1192.3 230.4 1196.3 233C1200.3 235.6 1205 237.3 1209.9 237.6C1214.6 237.9 1219.6 237 1224.3 235.4Z" fill="white"/>
<path d="M1224.8 199.4C1231.1 195.7 1238.1 192.9 1245.7 192.1C1249.5 191.8 1253.4 191.9 1257.3 192.8C1261.1 193.8 1264.8 195.6 1268 198.2C1271.2 200.8 1273.6 204.1 1275.4 207.9C1277.1 211.7 1277.9 215.8 1277.9 219.9C1277.8 224 1277 228 1275.6 231.8C1274.1 235.6 1272 239.2 1268.9 242.2C1265.9 245.1 1261.8 247.4 1257.3 248C1253.2 248.6 1248.9 248.2 1245 246.8C1241 245.4 1237.5 243 1234.7 240C1231.9 237 1229.9 233.5 1228.5 229.9C1227 226.3 1226.2 222.5 1225.8 218.7C1225.4 214.9 1225.4 211 1226.5 207.2C1227 205.3 1227.9 203.4 1229.1 201.8C1230.4 200.2 1232.2 198.9 1234.1 198.4C1238.1 197.4 1241.8 199.2 1244.8 201.1C1241.5 199.7 1237.7 198.9 1234.6 200.1C1231.6 201.3 1230 204.5 1229.6 207.8C1228.7 214.4 1230.5 221.6 1233.4 227.6C1236.4 233.6 1241.2 238.6 1247.1 240.3C1250 241.2 1253.2 241.4 1256.3 240.9C1259.1 240.5 1261.7 239.1 1263.8 236.9C1268.1 232.7 1270.7 226.1 1270.9 219.7C1271.1 216.5 1270.6 213.3 1269.5 210.4C1268.3 207.5 1266.5 204.7 1264.2 202.5C1259.6 198 1252.9 195.8 1245.9 195.7C1238.8 195.5 1231.7 197.2 1224.8 199.4Z" fill="white"/>
<path d="M1224.6 199.1C1230.5 194.5 1237.7 191.4 1245.5 190.8C1249.4 190.4 1253.4 190.8 1257.3 192C1261.2 193.1 1264.8 195.3 1267.7 198.1C1270.6 201 1272.6 204.6 1273.9 208.3C1275.1 212.1 1275.5 215.9 1275.3 219.7C1275.2 223.5 1274.5 227.2 1273.3 230.8C1272.1 234.4 1270.4 237.9 1267.7 241C1265.1 244 1261.4 246.6 1257.1 247.4C1253.1 248.2 1248.8 248.1 1244.8 246.9C1240.7 245.7 1237 243.5 1234 240.6C1231 237.7 1228.8 234.1 1227.2 230.4C1225.6 226.7 1224.8 222.8 1224.3 218.9C1223.9 215 1224 210.9 1225.1 206.9C1225.7 204.9 1226.6 202.9 1228 201.2C1229.4 199.5 1231.4 198.1 1233.5 197.5C1235.7 197 1237.8 197.2 1239.7 197.9C1241.6 198.5 1243.2 199.5 1244.7 200.6L1244.4 201.2C1241 200 1237.3 199.4 1234.7 200.8C1232.1 202.1 1230.9 205 1230.5 208.1C1229.7 214.4 1231.5 221.4 1234.3 227.2C1237.1 233 1241.4 238 1247.1 240.1C1249.9 241.2 1253.1 241.5 1256.3 241.3C1259.2 241.1 1262.1 239.9 1264.7 237.8C1269.9 233.7 1273.1 226.6 1273.1 219.6C1273.1 216.1 1272.2 212.6 1270.5 209.7C1268.8 206.8 1266.4 204.3 1263.9 202.5C1261.3 200.6 1258.5 199.2 1255.4 198.1C1252.3 197.1 1249.1 196.6 1245.7 196.4C1238.9 196.1 1232 197.7 1224.9 199.7L1224.6 199.1Z" fill="white"/>
<path d="M540.701 150.9C545.401 149.4 550.101 148.6 554.701 147.8C559.301 147.1 563.901 146.5 568.501 146.1C573.101 145.7 577.701 145.3 582.401 145.1C587.101 144.9 591.801 144.8 596.701 145.1C592.501 147.7 588.001 149.4 583.301 150.8C578.701 152.1 573.901 152.9 569.201 153.4C564.401 153.8 559.701 153.9 554.901 153.5C550.101 153.2 545.401 152.5 540.701 150.9Z" fill="white"/>
</g>
<defs>
<clipPath id="clip0">
<rect width="1277.8" height="303.9" fill="white"/>
</clipPath>
</defs>
</svg>
