<svg width="173" height="20" viewBox="0 0 173 20" fill="none" xmlns="http://www.w3.org/2000/svg">
<path d="M19.725 1.8C19.125 1.83333 18.6833 1.9 18.4 2C18.1333 2.1 17.95 2.29167 17.85 2.575C17.75 2.85833 17.7 3.31667 17.7 3.95V16.35C17.7 16.9833 17.75 17.4417 17.85 17.725C17.95 18.0083 18.1333 18.2 18.4 18.3C18.6833 18.4 19.125 18.4667 19.725 18.5V19C18.9583 18.95 17.9 18.925 16.55 18.925C15.1167 18.925 14.05 18.95 13.35 19V18.5C13.95 18.4667 14.3833 18.4 14.65 18.3C14.9333 18.2 15.125 18.0083 15.225 17.725C15.325 17.4417 15.375 16.9833 15.375 16.35V2.95L9.35 19.125H8.95L2.65 2.9V16.1C2.65 16.75 2.7 17.2333 2.8 17.55C2.91667 17.8667 3.13333 18.1 3.45 18.25C3.76667 18.3833 4.25833 18.4667 4.925 18.5V19C4.325 18.95 3.475 18.925 2.375 18.925C1.375 18.925 0.6 18.95 0.0500001 19V18.5C0.633333 18.4667 1.06667 18.3833 1.35 18.25C1.63333 18.1 1.825 17.8667 1.925 17.55C2.025 17.2167 2.075 16.7333 2.075 16.1V3.95C2.075 3.31667 2.025 2.85833 1.925 2.575C1.825 2.29167 1.63333 2.1 1.35 2C1.08333 1.9 0.65 1.83333 0.0500001 1.8V1.3C0.6 1.35 1.375 1.375 2.375 1.375C3.24167 1.375 3.95 1.35 4.5 1.3L10 15.775L15.375 1.375H16.55C17.9 1.375 18.9583 1.35 19.725 1.3V1.8ZM34.9523 16.9C35.3523 17.9333 35.9273 18.4667 36.6773 18.5V19C36.0107 18.95 35.119 18.925 34.0023 18.925C32.569 18.925 31.5023 18.95 30.8023 19V18.5C31.4357 18.4667 31.8857 18.3917 32.1523 18.275C32.4357 18.1417 32.5773 17.9083 32.5773 17.575C32.5773 17.2917 32.4773 16.9 32.2773 16.4L30.7523 12.3H24.7023L23.6773 14.95C23.344 15.85 23.1773 16.5333 23.1773 17C23.1773 17.5167 23.3523 17.8917 23.7023 18.125C24.069 18.3583 24.619 18.4833 25.3523 18.5V19C24.4023 18.95 23.444 18.925 22.4773 18.925C21.7273 18.925 21.1023 18.95 20.6023 19V18.5C21.4357 18.3 22.094 17.575 22.5773 16.325L28.4523 1.175H28.8523L34.9523 16.9ZM30.5523 11.8L27.7523 4.325L24.9023 11.8H30.5523ZM52.5361 17.75C52.1528 18.3167 51.7695 18.725 51.3861 18.975C51.0028 19.225 50.4945 19.35 49.8611 19.35C49.1778 19.35 48.6111 19.15 48.1611 18.75C47.7278 18.35 47.4028 17.65 47.1861 16.65L46.6361 14.15C46.4361 13.2833 46.2445 12.6167 46.0611 12.15C45.8945 11.6833 45.6361 11.3083 45.2861 11.025C44.9361 10.7417 44.4445 10.6 43.8111 10.6H41.4361V16.35C41.4361 16.9833 41.4861 17.4417 41.5861 17.725C41.6861 18.0083 41.8695 18.2 42.1361 18.3C42.4195 18.4 42.8611 18.4667 43.4611 18.5V19C42.6945 18.95 41.6361 18.925 40.2861 18.925C38.8528 18.925 37.7861 18.95 37.0861 19V18.5C37.6861 18.4667 38.1195 18.4 38.3861 18.3C38.6695 18.2 38.8611 18.0083 38.9611 17.725C39.0611 17.4417 39.1111 16.9833 39.1111 16.35V3.95C39.1111 3.31667 39.0611 2.85833 38.9611 2.575C38.8611 2.29167 38.6695 2.1 38.3861 2C38.1195 1.9 37.6861 1.83333 37.0861 1.8V1.3C37.7861 1.35 38.8028 1.375 40.1361 1.375L42.8361 1.35C43.1528 1.33333 43.5111 1.325 43.9111 1.325C45.8445 1.325 47.3278 1.73333 48.3611 2.55C49.4111 3.35 49.9361 4.39167 49.9361 5.675C49.9361 6.325 49.7778 6.98333 49.4611 7.65C49.1611 8.3 48.6445 8.89167 47.9111 9.425C47.1945 9.94167 46.2528 10.2917 45.0861 10.475L45.3861 10.525C46.4861 10.7083 47.2861 11.0417 47.7861 11.525C48.2861 12.0083 48.6528 12.775 48.8861 13.825L49.5111 16.375C49.6778 17.1417 49.8528 17.675 50.0361 17.975C50.2195 18.275 50.4695 18.425 50.7861 18.425C51.0695 18.425 51.3028 18.35 51.4861 18.2C51.6861 18.05 51.9111 17.8083 52.1611 17.475L52.5361 17.75ZM43.2861 1.8C42.7695 1.8 42.3778 1.85833 42.1111 1.975C41.8611 2.09167 41.6861 2.3 41.5861 2.6C41.4861 2.9 41.4361 3.35 41.4361 3.95V10.1H43.1111C44.7611 10.1 45.8945 9.73333 46.5111 9C47.1278 8.26667 47.4361 7.25 47.4361 5.95C47.4361 4.58333 47.1111 3.55 46.4611 2.85C45.8111 2.15 44.7528 1.8 43.2861 1.8ZM61.6471 0.949998C62.6304 0.949998 63.4387 1.09167 64.0721 1.375C64.7054 1.64167 65.3971 2.04167 66.1471 2.575C66.3637 2.74167 66.5304 2.825 66.6471 2.825C66.9637 2.825 67.1721 2.31667 67.2721 1.3H67.8471C67.7804 2.38333 67.7471 4.3 67.7471 7.05H67.1721C67.0221 6.16667 66.8637 5.44167 66.6971 4.875C66.5304 4.29167 66.2721 3.78333 65.9221 3.35C65.4387 2.75 64.8054 2.275 64.0221 1.925C63.2554 1.575 62.4471 1.4 61.5971 1.4C60.4971 1.4 59.5304 1.75833 58.6971 2.475C57.8637 3.19167 57.2221 4.21667 56.7721 5.55C56.3221 6.86667 56.0971 8.40833 56.0971 10.175C56.0971 13.175 56.5721 15.375 57.5221 16.775C58.4887 18.1583 59.9971 18.85 62.0471 18.85C63.0471 18.85 63.9137 18.5917 64.6471 18.075C64.9471 17.875 65.1387 17.6833 65.2221 17.5C65.3221 17.3 65.3721 17.0333 65.3721 16.7V14.3C65.3721 13.6 65.3054 13.0917 65.1721 12.775C65.0387 12.4583 64.8054 12.2417 64.4721 12.125C64.1387 12.0083 63.5971 11.9333 62.8471 11.9V11.4C63.7137 11.45 64.8887 11.475 66.3721 11.475C67.5054 11.475 68.3721 11.45 68.9721 11.4V11.9C68.5887 11.9333 68.3054 12 68.1221 12.1C67.9554 12.2 67.8387 12.3917 67.7721 12.675C67.7221 12.9583 67.6971 13.4167 67.6971 14.05V19H67.1971C67.1804 18.6667 67.1137 18.35 66.9971 18.05C66.8804 17.7333 66.7221 17.575 66.5221 17.575C66.4221 17.575 66.3221 17.6 66.2221 17.65C66.1221 17.7 65.9471 17.8167 65.6971 18C65.1137 18.45 64.5054 18.7833 63.8721 19C63.2554 19.2333 62.5637 19.35 61.7971 19.35C60.0804 19.35 58.6054 19 57.3721 18.3C56.1554 17.5833 55.2221 16.5583 54.5721 15.225C53.9221 13.8917 53.5971 12.3 53.5971 10.45C53.5971 8.55 53.9387 6.88333 54.6221 5.45C55.3221 4 56.2804 2.89167 57.4971 2.125C58.7137 1.34167 60.0971 0.949998 61.6471 0.949998ZM79.1002 0.949998C80.6835 0.949998 82.0669 1.30833 83.2502 2.025C84.4502 2.74167 85.3752 3.78333 86.0252 5.15C86.6919 6.5 87.0252 8.11667 87.0252 10C87.0252 11.8333 86.6835 13.4583 86.0002 14.875C85.3335 16.2917 84.3919 17.3917 83.1752 18.175C81.9752 18.9583 80.6085 19.35 79.0752 19.35C77.4919 19.35 76.1002 18.9917 74.9002 18.275C73.7169 17.5583 72.7919 16.525 72.1252 15.175C71.4752 13.8083 71.1502 12.1833 71.1502 10.3C71.1502 8.46667 71.4835 6.84167 72.1502 5.425C72.8335 4.00833 73.7752 2.90833 74.9752 2.125C76.1919 1.34167 77.5669 0.949998 79.1002 0.949998ZM79.0002 1.4C77.9335 1.4 76.9919 1.775 76.1752 2.525C75.3752 3.25833 74.7502 4.29167 74.3002 5.625C73.8669 6.95833 73.6502 8.48333 73.6502 10.2C73.6502 11.9333 73.8919 13.4583 74.3752 14.775C74.8752 16.0917 75.5419 17.1083 76.3752 17.825C77.2085 18.5417 78.1419 18.9 79.1752 18.9C80.2419 18.9 81.1752 18.5333 81.9752 17.8C82.7919 17.05 83.4169 16.0083 83.8502 14.675C84.3002 13.3417 84.5252 11.8167 84.5252 10.1C84.5252 8.36667 84.2752 6.84167 83.7752 5.525C83.2919 4.20833 82.6335 3.19167 81.8002 2.475C80.9669 1.75833 80.0335 1.4 79.0002 1.4Z" fill="#D7B889"/>
<path d="M93.7555 11.85V16.35C93.7555 16.9833 93.8221 17.4417 93.9555 17.725C94.0888 18.0083 94.3221 18.2 94.6555 18.3C94.9888 18.4 95.5305 18.4667 96.2805 18.5V19C95.4138 18.95 94.1888 18.925 92.6055 18.925C91.1721 18.925 90.1055 18.95 89.4055 19V18.5C90.0055 18.4667 90.4388 18.4 90.7055 18.3C90.9888 18.2 91.1805 18.0083 91.2805 17.725C91.3805 17.4417 91.4305 16.9833 91.4305 16.35V3.95C91.4305 3.31667 91.3805 2.85833 91.2805 2.575C91.1805 2.29167 90.9888 2.1 90.7055 2C90.4388 1.9 90.0055 1.83333 89.4055 1.8V1.3C90.1055 1.35 91.1221 1.375 92.4555 1.375L95.1555 1.35C95.4721 1.33333 95.8305 1.325 96.2305 1.325C98.1805 1.325 99.6721 1.775 100.705 2.675C101.739 3.55833 102.255 4.75 102.255 6.25C102.255 7.16667 102.047 8.05 101.63 8.9C101.23 9.73333 100.539 10.4333 99.5555 11C98.5888 11.5667 97.2971 11.85 95.6805 11.85H93.7555ZM95.6055 1.8C95.0888 1.8 94.6971 1.85833 94.4305 1.975C94.1805 2.09167 94.0055 2.3 93.9055 2.6C93.8055 2.9 93.7555 3.35 93.7555 3.95V11.35H95.4305C97.0638 11.35 98.1888 10.9167 98.8055 10.05C99.4388 9.16667 99.7555 7.99167 99.7555 6.525C99.7555 4.90833 99.4305 3.71667 98.7805 2.95C98.1471 2.18333 97.0888 1.8 95.6055 1.8ZM120.854 1.8C120.254 1.83333 119.813 1.9 119.529 2C119.263 2.1 119.079 2.29167 118.979 2.575C118.879 2.85833 118.829 3.31667 118.829 3.95V16.35C118.829 16.9833 118.879 17.4417 118.979 17.725C119.079 18.0083 119.263 18.2 119.529 18.3C119.813 18.4 120.254 18.4667 120.854 18.5V19C120.154 18.95 119.088 18.925 117.654 18.925C116.304 18.925 115.246 18.95 114.479 19V18.5C115.079 18.4667 115.513 18.4 115.779 18.3C116.063 18.2 116.254 18.0083 116.354 17.725C116.454 17.4417 116.504 16.9833 116.504 16.35V10.35H108.379V16.35C108.379 16.9833 108.429 17.4417 108.529 17.725C108.629 18.0083 108.813 18.2 109.079 18.3C109.363 18.4 109.804 18.4667 110.404 18.5V19C109.638 18.95 108.579 18.925 107.229 18.925C105.796 18.925 104.729 18.95 104.029 19V18.5C104.629 18.4667 105.063 18.4 105.329 18.3C105.613 18.2 105.804 18.0083 105.904 17.725C106.004 17.4417 106.054 16.9833 106.054 16.35V3.95C106.054 3.31667 106.004 2.85833 105.904 2.575C105.804 2.29167 105.613 2.1 105.329 2C105.063 1.9 104.629 1.83333 104.029 1.8V1.3C104.729 1.35 105.796 1.375 107.229 1.375C108.563 1.375 109.621 1.35 110.404 1.3V1.8C109.804 1.83333 109.363 1.9 109.079 2C108.813 2.1 108.629 2.29167 108.529 2.575C108.429 2.85833 108.379 3.31667 108.379 3.95V9.85H116.504V3.95C116.504 3.31667 116.454 2.85833 116.354 2.575C116.254 2.29167 116.063 2.1 115.779 2C115.513 1.9 115.079 1.83333 114.479 1.8V1.3C115.246 1.35 116.304 1.375 117.654 1.375C119.088 1.375 120.154 1.35 120.854 1.3V1.8ZM130.98 0.949998C132.563 0.949998 133.947 1.30833 135.13 2.025C136.33 2.74167 137.255 3.78333 137.905 5.15C138.572 6.5 138.905 8.11667 138.905 10C138.905 11.8333 138.563 13.4583 137.88 14.875C137.213 16.2917 136.272 17.3917 135.055 18.175C133.855 18.9583 132.488 19.35 130.955 19.35C129.372 19.35 127.98 18.9917 126.78 18.275C125.597 17.5583 124.672 16.525 124.005 15.175C123.355 13.8083 123.03 12.1833 123.03 10.3C123.03 8.46667 123.363 6.84167 124.03 5.425C124.713 4.00833 125.655 2.90833 126.855 2.125C128.072 1.34167 129.447 0.949998 130.98 0.949998ZM130.88 1.4C129.813 1.4 128.872 1.775 128.055 2.525C127.255 3.25833 126.63 4.29167 126.18 5.625C125.747 6.95833 125.53 8.48333 125.53 10.2C125.53 11.9333 125.772 13.4583 126.255 14.775C126.755 16.0917 127.422 17.1083 128.255 17.825C129.088 18.5417 130.022 18.9 131.055 18.9C132.122 18.9 133.055 18.5333 133.855 17.8C134.672 17.05 135.297 16.0083 135.73 14.675C136.18 13.3417 136.405 11.8167 136.405 10.1C136.405 8.36667 136.155 6.84167 135.655 5.525C135.172 4.20833 134.513 3.19167 133.68 2.475C132.847 1.75833 131.913 1.4 130.88 1.4ZM155.035 1.3C154.919 2.48333 154.86 3.55 154.86 4.5C154.86 5.33333 154.885 6.01667 154.935 6.55H154.36C154.227 5.26667 154.06 4.31667 153.86 3.7C153.66 3.06667 153.31 2.60833 152.81 2.325C152.31 2.025 151.544 1.875 150.51 1.875H149.16V16.1C149.16 16.8 149.227 17.3083 149.36 17.625C149.494 17.9417 149.727 18.1583 150.06 18.275C150.394 18.3917 150.935 18.4667 151.685 18.5V19C150.819 18.95 149.594 18.925 148.01 18.925C146.344 18.925 145.11 18.95 144.31 19V18.5C145.06 18.4667 145.602 18.3917 145.935 18.275C146.269 18.1583 146.502 17.9417 146.635 17.625C146.769 17.3083 146.835 16.8 146.835 16.1V1.875H145.485C144.452 1.875 143.685 2.025 143.185 2.325C142.685 2.60833 142.335 3.06667 142.135 3.7C141.935 4.31667 141.769 5.26667 141.635 6.55H141.06C141.11 6.01667 141.135 5.33333 141.135 4.5C141.135 3.55 141.077 2.48333 140.96 1.3C142.344 1.35 144.694 1.375 148.01 1.375C151.31 1.375 153.652 1.35 155.035 1.3ZM165.038 0.949998C166.621 0.949998 168.004 1.30833 169.188 2.025C170.388 2.74167 171.313 3.78333 171.963 5.15C172.629 6.5 172.963 8.11667 172.963 10C172.963 11.8333 172.621 13.4583 171.938 14.875C171.271 16.2917 170.329 17.3917 169.113 18.175C167.913 18.9583 166.546 19.35 165.013 19.35C163.429 19.35 162.038 18.9917 160.838 18.275C159.654 17.5583 158.729 16.525 158.063 15.175C157.413 13.8083 157.088 12.1833 157.088 10.3C157.088 8.46667 157.421 6.84167 158.088 5.425C158.771 4.00833 159.713 2.90833 160.913 2.125C162.129 1.34167 163.504 0.949998 165.038 0.949998ZM164.938 1.4C163.871 1.4 162.929 1.775 162.113 2.525C161.313 3.25833 160.688 4.29167 160.238 5.625C159.804 6.95833 159.588 8.48333 159.588 10.2C159.588 11.9333 159.829 13.4583 160.313 14.775C160.813 16.0917 161.479 17.1083 162.313 17.825C163.146 18.5417 164.079 18.9 165.113 18.9C166.179 18.9 167.113 18.5333 167.913 17.8C168.729 17.05 169.354 16.0083 169.788 14.675C170.238 13.3417 170.463 11.8167 170.463 10.1C170.463 8.36667 170.213 6.84167 169.713 5.525C169.229 4.20833 168.571 3.19167 167.738 2.475C166.904 1.75833 165.971 1.4 164.938 1.4Z" fill="#2D2D2D" fill-opacity="0.7"/>
</svg>
